<?xml version="1.0" encoding="iso-8859-1"?>
<!-- Generator: Adobe Illustrator 19.0.0, SVG Export Plug-In . SVG Version: 6.00 Build 0)  -->
<svg version="1.1" id="Layer_1" xmlns="http://www.w3.org/2000/svg" xmlns:xlink="http://www.w3.org/1999/xlink" x="0px" y="0px"
	 viewBox="0 0 512 512" style="enable-background:new 0 0 512 512;" xml:space="preserve">
<g>
	<g>
		<g>
			<path d="M456.37,265.083c-21.969,0-42.656-9.663-56.757-26.512c-14.794-17.676-36.497-27.815-59.547-27.815h-217.7
				c-6.698,0-12.628-4.022-15.105-10.248l-24.738-62.195c-6.239-15.685-21.177-25.82-38.058-25.82H27.293
				C12.244,112.494,0,124.737,0,139.787v59.209c0,96.135,78.21,174.345,174.344,174.345h2.111v4.133
				c0,12.148,9.884,22.032,22.032,22.032h48.081c12.004,0,21.77-9.767,21.77-21.771v-4.394h191.032
				c29.021,0,52.629-23.609,52.629-52.629C512,290.038,487.044,265.083,456.37,265.083z M404.194,264.718H339.91
				c-4.04,0-7.326-3.286-7.326-7.326c0-4.039,3.286-7.326,7.326-7.326h48.177C392.9,255.64,398.313,260.545,404.194,264.718z
				 M16.237,198.996v-59.209c0-6.096,4.96-11.056,11.056-11.056h17.172c10.189,0,19.206,6.117,22.972,15.584l0.88,2.211h-0.074
				c-17.337,0-31.44,14.104-31.44,31.44v32.608c0,12.686-5.083,24.591-14.062,33.321C18.516,229.655,16.237,214.589,16.237,198.996z
				 M225.052,383.269h-26.564c-3.195,0-5.795-2.6-5.795-5.795v-24.637c0-3.195,2.599-5.795,5.795-5.795h26.564V383.269z
				 M252.102,377.735c0,3.051-2.482,5.535-5.534,5.535h-5.28v-36.227h5.28c3.051,0,5.534,2.482,5.534,5.535V377.735z
				 M180.212,330.805c-5.729,0-10.392-4.661-10.392-10.391c0-5.729,4.662-10.39,10.392-10.39h84.37
				c5.729,0,10.392,4.661,10.392,10.39c0,5.729-4.662,10.391-10.392,10.391H180.212z M459.371,357.104H268.339v-4.529
				c0-1.977-0.288-3.883-0.784-5.704c13.288-1.483,23.655-12.781,23.655-26.457c0-14.682-11.945-26.627-26.628-26.627h-84.37
				c-14.682,0-26.628,11.945-26.628,26.627c0,13.696,10.397,25.007,23.712,26.465c-0.535,1.899-0.841,3.891-0.841,5.958v4.267
				h-2.111c-65.484,0-121.795-40.018-145.77-96.884c0.315-0.188,0.62-0.393,0.907-0.622c14.971-11.98,23.558-29.848,23.558-49.023
				v-32.608c0-8.383,6.821-15.202,15.203-15.202h6.531l17.399,43.746c4.949,12.444,16.801,20.483,30.192,20.483h217.701
				c9.941,0,19.559,2.401,28.154,6.837h-28.31c-12.993,0-23.563,10.57-23.563,23.563c0,12.993,10.57,23.563,23.563,23.563h108.387
				c2.672,0.238,5.365,0.365,8.074,0.365c21.722,0,39.394,17.672,39.394,39.394C495.763,340.78,479.438,357.104,459.371,357.104z"/>
			<path d="M213.131,233.829h-7.317c-9.585,0-17.385,7.799-17.385,17.385v12.356c0,9.586,7.799,17.385,17.385,17.385h7.317
				c9.585,0,17.385-7.799,17.385-17.385v-12.356C230.516,241.628,222.717,233.829,213.131,233.829z M214.279,263.57
				c0,0.633-0.515,1.148-1.148,1.148h-7.317c-0.633,0-1.148-0.515-1.148-1.148v-12.356c0-0.633,0.515-1.148,1.148-1.148h7.317
				c0.633,0,1.148,0.515,1.148,1.148V263.57z"/>
			<path d="M95.384,233.829h-7.317c-9.585,0-17.385,7.799-17.385,17.385v12.356c0,9.586,7.799,17.385,17.385,17.385h7.317
				c9.585,0,17.385-7.799,17.385-17.385v-12.356C112.769,241.628,104.97,233.829,95.384,233.829z M96.532,263.57
				c0,0.633-0.515,1.148-1.148,1.148h-7.317c-0.633,0-1.148-0.515-1.148-1.148v-12.356c0-0.633,0.515-1.148,1.148-1.148h7.317
				c0.633,0,1.148,0.515,1.148,1.148V263.57z"/>
			<path d="M154.257,233.829h-7.316c-9.585,0-17.385,7.799-17.385,17.385v12.356c0,9.586,7.799,17.385,17.385,17.385h7.316
				c9.585,0,17.385-7.799,17.385-17.385v-12.356C171.641,241.628,163.842,233.829,154.257,233.829z M155.404,263.57
				c0,0.633-0.515,1.148-1.148,1.148h-7.316c-0.633,0-1.148-0.515-1.148-1.148v-12.356c0-0.633,0.515-1.148,1.148-1.148h7.316
				c0.633,0,1.148,0.515,1.148,1.148V263.57z"/>
			<path d="M272.005,233.829h-7.317c-9.585,0-17.385,7.799-17.385,17.385v12.356c0,9.586,7.799,17.385,17.385,17.385h7.317
				c9.585,0,17.385-7.799,17.385-17.385v-12.356C289.39,241.628,281.591,233.829,272.005,233.829z M273.154,263.57
				c0,0.633-0.515,1.148-1.148,1.148h-7.317c-0.633,0-1.148-0.515-1.148-1.148v-12.356c0-0.633,0.515-1.148,1.148-1.148h7.317
				c0.633,0,1.148,0.515,1.148,1.148V263.57z"/>
		</g>
	</g>
</g>
<g>
</g>
<g>
</g>
<g>
</g>
<g>
</g>
<g>
</g>
<g>
</g>
<g>
</g>
<g>
</g>
<g>
</g>
<g>
</g>
<g>
</g>
<g>
</g>
<g>
</g>
<g>
</g>
<g>
</g>
</svg>
