<?xml version="1.0" encoding="iso-8859-1"?>
<!-- Generator: Adobe Illustrator 18.0.0, SVG Export Plug-In . SVG Version: 6.00 Build 0)  -->
<!DOCTYPE svg PUBLIC "-//W3C//DTD SVG 1.1//EN" "http://www.w3.org/Graphics/SVG/1.1/DTD/svg11.dtd">
<svg version="1.1" id="Capa_1" xmlns="http://www.w3.org/2000/svg" xmlns:xlink="http://www.w3.org/1999/xlink" x="0px" y="0px"
	 viewBox="0 0 219.836 219.836" style="enable-background:new 0 0 219.836 219.836;" xml:space="preserve">
<g>
	<g>
		<g>
			<path d="M204.088,219.836H16.384c-4.142,0-7.5-3.358-7.5-7.5c0-4.142,3.358-7.5,7.5-7.5h187.704c4.143,0,7.5,3.358,7.5,7.5
				C211.588,216.478,208.23,219.836,204.088,219.836z"/>
		</g>
	</g>
	<g>
		<g>
			<path d="M186.76,161.385c-10.586,0-24.627-3.593-41.734-10.679l-27.56-11.415l-57.923,11.359
				c-1.687,0.331-3.432,0.073-4.951-0.73l-24.264-12.838c-2.257-1.194-3.751-3.454-3.966-5.998
				c-0.215-2.544,0.879-5.022,2.903-6.578l25.923-19.92L10.872,78.687c-2.525-1.476-3.963-4.286-3.681-7.197l6.26-64.712
				c0.228-2.362,1.561-4.477,3.594-5.702c2.033-1.225,4.525-1.415,6.72-0.514l21.85,8.973c2.393,0.982,4.109,3.127,4.544,5.676
				l6.519,38.178l109.817,45.488c15.314,6.344,26.936,12.938,34.538,19.602c13.402,11.745,12.837,22.367,10.002,29.209
				C208.446,153.936,202.134,161.385,186.76,161.385z M118.244,123.996c0.98,0,1.956,0.192,2.87,0.571l29.651,12.281
				c15.063,6.239,27.51,9.537,35.994,9.537c8.578,0,9.914-3.224,10.417-4.438c3.08-7.437-10.876-18.631-36.423-29.212L47.11,65.661
				c-2.381-0.986-4.089-3.126-4.522-5.667l-6.516-38.163l-8.663-3.558l-4.826,49.884l49.803,29.104
				c2.156,1.26,3.543,3.51,3.701,6.001c0.157,2.492-0.936,4.899-2.915,6.42l-25.507,19.601l11.596,6.136l57.54-11.284
				C117.278,124.042,117.762,123.996,118.244,123.996z"/>
		</g>
	</g>
</g>
<g>
</g>
<g>
</g>
<g>
</g>
<g>
</g>
<g>
</g>
<g>
</g>
<g>
</g>
<g>
</g>
<g>
</g>
<g>
</g>
<g>
</g>
<g>
</g>
<g>
</g>
<g>
</g>
<g>
</g>
</svg>
