<?xml version="1.0" encoding="iso-8859-1"?>
<!-- Generator: Adobe Illustrator 19.0.0, SVG Export Plug-In . SVG Version: 6.00 Build 0)  -->
<svg version="1.1" id="Layer_1" xmlns="http://www.w3.org/2000/svg" xmlns:xlink="http://www.w3.org/1999/xlink" x="0px" y="0px"
	 viewBox="0 0 512 512" style="enable-background:new 0 0 512 512;" xml:space="preserve">
<rect x="7.617" y="168.549" style="fill:#D3EFFD;" width="496.771" height="174.897"/>
<rect x="419.916" y="198.217" style="fill:#FFD578;" width="51.809" height="112.495"/>
<g>
	<rect x="419.916" y="273.224" style="fill:#F7B737;" width="51.809" height="17.883"/>
	<rect x="419.916" y="224.025" style="fill:#F7B737;" width="51.809" height="27.494"/>
</g>
<g>
	<path style="fill:#5D5D5D;" d="M63.833,280.831c-1.949,0-3.899-0.743-5.386-2.231c-2.975-2.975-2.975-7.798,0-10.772l55.159-55.159
		c2.975-2.975,7.798-2.975,10.772,0c2.975,2.975,2.975,7.798,0,10.772L69.219,278.6C67.733,280.087,65.784,280.831,63.833,280.831z"
		/>
	<path style="fill:#5D5D5D;" d="M117.635,292.6c-3.493,0-6.642-2.417-7.43-5.969l-10.854-48.936l-48.935-10.854
		c-4.107-0.911-6.698-4.979-5.787-9.086c0.911-4.106,4.979-6.695,9.086-5.787l53.672,11.905c2.89,0.641,5.146,2.898,5.787,5.787
		l11.905,53.672c0.911,4.107-1.68,8.175-5.787,9.086C118.736,292.542,118.181,292.6,117.635,292.6z"/>
	<path style="fill:#5D5D5D;" d="M68.285,301.565c-3.493,0-6.642-2.417-7.43-5.969l-3.522-15.882l-15.881-3.522
		c-4.107-0.911-6.698-4.979-5.787-9.086c0.911-4.107,4.975-6.698,9.086-5.787l20.617,4.573c2.89,0.641,5.146,2.898,5.787,5.787
		l4.574,20.618c0.911,4.106-1.68,8.175-5.787,9.086C69.386,301.506,68.832,301.565,68.285,301.565z"/>
</g>
<g>
	<path style="fill:#73AFD6;" d="M370.693,168.552v6.094c0,4.207,3.411,7.617,7.617,7.617s7.617-3.411,7.617-7.617v-6.094H370.693z"
		/>
	<path style="fill:#73AFD6;" d="M378.561,225.714c4.207,0,7.617-3.411,7.617-7.617v-11.093c0-4.207-3.411-7.617-7.617-7.617
		s-7.617,3.411-7.617,7.617v11.093C370.944,222.303,374.354,225.714,378.561,225.714z"/>
	<path style="fill:#73AFD6;" d="M378.561,312.615c4.207,0,7.617-3.411,7.617-7.617v-11.093c0-4.207-3.411-7.617-7.617-7.617
		s-7.617,3.411-7.617,7.617v11.093C370.944,309.204,374.354,312.615,378.561,312.615z"/>
	<path style="fill:#73AFD6;" d="M378.561,269.165c4.207,0,7.617-3.411,7.617-7.617v-11.093c0-4.207-3.411-7.617-7.617-7.617
		s-7.617,3.411-7.617,7.617v11.093C370.944,265.754,374.354,269.165,378.561,269.165z"/>
	<path style="fill:#73AFD6;" d="M385.928,343.448L385.928,343.448v-6.094c0-4.207-3.411-7.617-7.617-7.617s-7.617,3.411-7.617,7.617
		v6.094l0,0H385.928z"/>
</g>
<rect x="151.171" y="168.549" style="fill:#174F79;" width="15.235" height="174.897"/>
<path d="M378.31,242.836c-4.207,0-7.617,3.411-7.617,7.617v11.093c0,4.207,3.411,7.617,7.617,7.617s7.617-3.411,7.617-7.617v-11.093
	C385.928,246.247,382.517,242.836,378.31,242.836z"/>
<path d="M378.31,286.287c-4.207,0-7.617,3.411-7.617,7.617v11.093c0,4.207,3.411,7.617,7.617,7.617s7.617-3.411,7.617-7.617v-11.093
	C385.928,289.697,382.517,286.287,378.31,286.287z"/>
<path d="M378.31,199.386c-4.207,0-7.617,3.411-7.617,7.617v11.093c0,4.207,3.411,7.617,7.617,7.617s7.617-3.411,7.617-7.617v-11.093
	C385.928,202.796,382.517,199.386,378.31,199.386z"/>
<path d="M504.383,160.935H7.617c-4.207,0-7.617,3.411-7.617,7.617v174.895c0,4.207,3.411,7.617,7.617,7.617h496.765
	c4.207,0,7.617-3.411,7.617-7.617V168.552C512,164.346,508.59,160.935,504.383,160.935z M15.235,176.17h135.937v159.66H15.235
	V176.17z M496.765,335.83H385.774c-0.706-3.477-3.779-6.094-7.464-6.094s-6.758,2.617-7.464,6.094H166.407V176.17h204.438
	c0.706,3.478,3.779,6.094,7.464,6.094s6.759-2.617,7.464-6.094h110.991v159.66H496.765z"/>
<path d="M192.195,212.506h93.058c4.207,0,7.617-3.411,7.617-7.617s-3.411-7.617-7.617-7.617h-93.058
	c-4.207,0-7.617,3.411-7.617,7.617S187.988,212.506,192.195,212.506z"/>
<path d="M333.315,197.271h-25.983c-4.207,0-7.617,3.411-7.617,7.617s3.411,7.617,7.617,7.617h25.983
	c4.207,0,7.617-3.411,7.617-7.617S337.522,197.271,333.315,197.271z"/>
<path d="M333.315,221.236h-141.12c-4.207,0-7.617,3.411-7.617,7.617c0,4.207,3.411,7.617,7.617,7.617h141.12
	c4.207,0,7.617-3.411,7.617-7.617C340.933,224.646,337.522,221.236,333.315,221.236z"/>
<path d="M192.195,260.435h55.903c4.207,0,7.617-3.411,7.617-7.617c0-4.207-3.411-7.617-7.617-7.617h-55.903
	c-4.207,0-7.617,3.411-7.617,7.617C184.578,257.025,187.988,260.435,192.195,260.435z"/>
<path d="M333.315,245.2h-61.357c-4.207,0-7.617,3.411-7.617,7.617c0,4.207,3.411,7.617,7.617,7.617h61.357
	c4.207,0,7.617-3.411,7.617-7.617C340.933,248.611,337.522,245.2,333.315,245.2z"/>
<path d="M333.315,269.165h-141.12c-4.207,0-7.617,3.411-7.617,7.617s3.411,7.617,7.617,7.617h141.12
	c4.207,0,7.617-3.411,7.617-7.617S337.522,269.165,333.315,269.165z"/>
<path d="M268.551,293.129h-76.355c-4.207,0-7.617,3.411-7.617,7.617s3.411,7.617,7.617,7.617h76.355
	c4.207,0,7.617-3.411,7.617-7.617S272.757,293.129,268.551,293.129z"/>
<path d="M419.912,318.33h51.812c4.207,0,7.617-3.411,7.617-7.617v-19.606v-17.882v-21.713v-27.489v-25.801
	c0-4.207-3.411-7.617-7.617-7.617h-51.812c-4.207,0-7.617,3.411-7.617,7.617v25.801v27.489v21.713v17.882v19.606
	C412.294,314.92,415.704,318.33,419.912,318.33z M427.529,231.639h36.577v12.254h-36.577V231.639z M464.106,259.128v6.478h-36.577
	v-6.478H464.106z M464.106,283.489h-36.577v-2.647h36.577V283.489z M427.529,303.095v-4.371h36.577v4.371H427.529z M464.106,205.838
	v10.566h-36.577v-10.566H464.106z"/>
<path d="M114.079,233.741l10.3-10.3c2.975-2.975,2.975-7.798,0-10.772c-2.975-2.975-7.798-2.975-10.772,0l-10.299,10.299l-49.592-11
	c-4.107-0.908-8.175,1.681-9.086,5.787c-0.911,4.107,1.68,8.175,5.787,9.086l40.119,8.898l-29.247,29.247l-16.538-3.669
	c-4.111-0.911-8.175,1.68-9.086,5.787c-0.91,4.107,1.68,8.175,5.787,9.086l15.881,3.522l3.522,15.881
	c0.788,3.552,3.937,5.969,7.43,5.969c0.546,0,1.101-0.059,1.657-0.182c4.107-0.911,6.698-4.98,5.787-9.086l-3.669-16.537
	l29.246-29.246l8.898,40.118c0.788,3.552,3.937,5.969,7.43,5.969c0.546,0,1.101-0.059,1.657-0.182
	c4.107-0.911,6.698-4.979,5.787-9.086L114.079,233.741z"/>
<g>
</g>
<g>
</g>
<g>
</g>
<g>
</g>
<g>
</g>
<g>
</g>
<g>
</g>
<g>
</g>
<g>
</g>
<g>
</g>
<g>
</g>
<g>
</g>
<g>
</g>
<g>
</g>
<g>
</g>
</svg>
