<?xml version="1.0" encoding="iso-8859-1"?>
<!-- Generator: Adobe Illustrator 19.0.0, SVG Export Plug-In . SVG Version: 6.00 Build 0)  -->
<svg version="1.1" id="Capa_1" xmlns="http://www.w3.org/2000/svg" xmlns:xlink="http://www.w3.org/1999/xlink" x="0px" y="0px"
	 viewBox="0 0 512.002 512.002" style="enable-background:new 0 0 512.002 512.002;" xml:space="preserve">
<g>
	<g>
		<path d="M494.83,317.48c-0.081-0.16-0.154-0.322-0.245-0.479c-0.125-0.216-0.264-0.418-0.401-0.622
			c-8.764-14.922-20.412-27.954-34.184-38.314V247.14c0-3.688-2.029-7.076-5.28-8.816l-174.454-93.389l1.981-92.472
			c0.292-13.662-4.905-26.66-14.635-36.6C257.745,5.782,244.035,0,229.999,0c-14.035,0-27.744,5.782-37.612,15.864
			c-9.729,9.939-14.926,22.937-14.633,36.599l1.318,61.525l0.894,31.233L5.297,238.316C2.036,240.053,0,243.446,0,247.14v55.19
			c0,3.075,1.415,5.979,3.836,7.874c2.421,1.896,5.581,2.572,8.564,1.833l119.35-29.513v11.032c0,5.523,4.478,10,10,10
			c5.523,0,10-4.477,10-10V277.58l30.7-7.592l2.217,90.758l-40.706,35.243c-2.193,1.899-3.454,4.658-3.454,7.56V450
			c0,3.232,1.563,6.265,4.193,8.142c1.718,1.225,3.752,1.858,5.808,1.858c1.094,0,2.194-0.18,3.256-0.545L230,433.193l39.276,13.53
			c0.05,0.093,0.09,0.188,0.143,0.279c0.087,0.151,0.193,0.284,0.288,0.428c11.287,19.299,27.403,35.44,46.682,46.758
			c0.201,0.137,0.4,0.274,0.613,0.397c0.11,0.063,0.226,0.107,0.337,0.165c19.056,10.972,41.14,17.252,64.663,17.252
			s45.606-6.28,64.662-17.252c0.112-0.059,0.228-0.102,0.338-0.166c0.213-0.123,0.412-0.26,0.613-0.397
			c19.277-11.317,35.393-27.457,46.68-46.754c0.095-0.146,0.202-0.279,0.29-0.432c0.093-0.159,0.167-0.323,0.249-0.486
			c10.919-19.022,17.168-41.052,17.168-64.514C512.002,358.536,505.752,336.504,494.83,317.48z M151.75,256.977v-4.456
			c0-5.522-4.477-9.999-10-9.999c-5.522,0-10,4.477-10,10v9.401L20,289.556v-36.414l160.448-85.516l1.546,81.872L151.75,256.977z
			 M260.139,150.641v0.001l-2.279,106.435c0,0.001,0,0.003,0,0.004l-2.312,94.685c-0.044,0.183-0.08,0.368-0.123,0.551
			c-0.16,0.683-0.309,1.369-0.458,2.056c-0.095,0.435-0.195,0.869-0.285,1.306c-0.238,1.155-0.461,2.316-0.669,3.481
			c-0.026,0.148-0.048,0.297-0.074,0.446c-0.181,1.039-0.351,2.082-0.507,3.129c-0.045,0.299-0.084,0.6-0.126,0.9
			c-0.128,0.896-0.247,1.793-0.356,2.694c-0.042,0.351-0.081,0.703-0.121,1.054c-0.096,0.852-0.184,1.707-0.262,2.564
			c-0.035,0.374-0.069,0.747-0.101,1.122c-0.07,0.84-0.131,1.683-0.185,2.527c-0.024,0.38-0.051,0.759-0.072,1.139
			c-0.049,0.872-0.084,1.746-0.115,2.622c-0.012,0.341-0.029,0.682-0.039,1.022c-0.033,1.204-0.053,2.411-0.053,3.623
			c0,1.539,0.037,3.071,0.09,4.598c0.011,0.295,0.021,0.589,0.034,0.884c0.493,11.833,2.574,23.262,6.038,34.08
			c0.022,0.066,0.038,0.133,0.06,0.199l-24.967-8.602c-2.109-0.728-4.404-0.728-6.514,0l-66.236,22.817v-27.86l40.818-35.34
			c2.258-1.955,3.525-4.818,3.451-7.804l-2.637-107.928v-0.001l-2.003-106.103c0-0.018-0.003-0.036-0.004-0.054
			c0-0.014,0.002-0.028,0.002-0.042l-1.068-37.357l-1.316-61.454c-0.177-8.239,2.994-16.116,8.93-22.18
			C212.809,23.592,221.309,20,230,20s17.191,3.591,23.32,9.853c5.935,6.064,9.107,13.942,8.931,22.182L260.139,150.641z
			 M279.787,167.362L440,253.13v12.498c-11.879-5.938-24.565-9.979-37.692-12.038c-0.233-0.037-0.467-0.077-0.7-0.112
			c-0.748-0.113-1.497-0.215-2.247-0.315c-0.446-0.06-0.892-0.12-1.339-0.175c-0.648-0.08-1.297-0.153-1.946-0.223
			c-0.564-0.061-1.13-0.118-1.697-0.172c-0.573-0.054-1.147-0.107-1.723-0.153c-0.664-0.054-1.33-0.1-1.997-0.144
			c-0.501-0.033-1.001-0.068-1.503-0.096c-0.796-0.043-1.595-0.074-2.395-0.104c-0.386-0.014-0.77-0.033-1.155-0.044
			c-1.197-0.033-2.398-0.052-3.603-0.052c-0.584,0-1.164,0.014-1.746,0.022c-17.214,0.224-33.861,3.746-49.559,10.504l-2.447-0.605
			v-9.401c0-5.523-4.478-10-10-10c-5.522,0-10,4.477-10,10v4.456l-30.223-7.474L279.787,167.362z M277.551,269.988l28.015,6.927
			c-11.083,8.084-20.843,17.873-28.892,28.982L277.551,269.988z M487.483,392.003h4.06c-1.158,12.788-4.512,24.95-9.684,36.106
			l-3.509-2.025c-4.785-2.763-10.9-1.123-13.66,3.66c-2.762,4.783-1.123,10.899,3.66,13.66l3.484,2.012
			c-7.242,10.23-16.187,19.175-26.42,26.419l-2.012-3.484c-2.761-4.783-8.877-6.422-13.66-3.66c-4.783,2.762-6.422,8.877-3.66,13.66
			l2.025,3.508c-11.156,5.172-23.318,8.526-36.105,9.684v-4.06c0-5.523-4.478-10-10-10c-5.523,0-10,4.477-10,10v4.06
			c-12.787-1.158-24.949-4.512-36.105-9.684l2.025-3.508c2.762-4.783,1.123-10.898-3.66-13.66c-4.784-2.762-10.898-1.123-13.66,3.66
			l-2.012,3.484c-10.232-7.244-19.178-16.189-26.421-26.421l3.484-2.011c4.783-2.762,6.422-8.878,3.66-13.661
			c-2.759-4.782-8.875-6.42-13.66-3.661l-3.509,2.026c-1.191-2.571-2.289-5.194-3.283-7.868c-0.112-0.303-0.226-0.607-0.335-0.912
			c-0.188-0.518-0.37-1.038-0.55-1.559c-0.23-0.671-0.455-1.343-0.672-2.019c-0.074-0.229-0.15-0.458-0.224-0.688
			c-2.325-7.405-3.872-15.063-4.599-22.817c-0.007-0.081-0.014-0.163-0.022-0.244h4.061c5.522,0,10-4.477,10-10s-4.478-10-10-10
			h-4.061c0.015-0.157,0.027-0.315,0.043-0.472c0.072-0.772,0.155-1.542,0.245-2.311c0.031-0.271,0.059-0.544,0.093-0.815
			c0.125-1.004,0.261-2.006,0.412-3.006c0.005-0.031,0.009-0.064,0.014-0.095c0.152-1.001,0.322-1.998,0.503-2.993
			c0.076-0.42,0.16-0.838,0.241-1.257c0.106-0.553,0.215-1.104,0.33-1.654c0.112-0.537,0.23-1.072,0.351-1.606
			c0.09-0.399,0.183-0.796,0.276-1.194c1.708-7.199,4.127-14.125,7.176-20.702l3.509,2.026c1.575,0.91,3.294,1.342,4.99,1.342
			c3.456,0,6.818-1.794,8.67-5.002c2.762-4.783,1.123-10.899-3.66-13.66l-3.484-2.012c7.243-10.232,16.189-19.177,26.421-26.421
			l2.012,3.485c1.852,3.208,5.213,5.002,8.67,5.002c1.696,0,3.415-0.433,4.99-1.342c4.783-2.761,6.422-8.877,3.66-13.66
			l-2.025-3.509c11.156-5.172,23.318-8.526,36.105-9.684v4.06c0,5.523,4.477,10,10,10c5.522,0,10-4.477,10-10v-4.052
			c0.638,0.058,1.276,0.111,1.912,0.18c0.426,0.046,0.85,0.095,1.274,0.146c0.832,0.099,1.662,0.211,2.49,0.329
			c0.64,0.091,1.276,0.188,1.912,0.29c0.748,0.12,1.495,0.247,2.24,0.382c0.631,0.115,1.261,0.237,1.888,0.363
			c0.432,0.086,0.861,0.179,1.291,0.271c1.425,0.304,2.841,0.631,4.244,0.99c0.084,0.022,0.168,0.042,0.252,0.063
			c6.448,1.666,12.666,3.91,18.602,6.662l-2.025,3.509c-2.762,4.783-1.123,10.899,3.66,13.66c1.575,0.91,3.294,1.342,4.99,1.342
			c3.456,0,6.818-1.794,8.67-5.002l2.012-3.485c10.232,7.244,19.178,16.189,26.421,26.421l-3.484,2.012
			c-4.783,2.762-6.422,8.878-3.66,13.661c1.852,3.208,5.213,5.002,8.67,5.002c1.696,0,3.415-0.433,4.99-1.341l3.509-2.025
			c5.172,11.156,8.525,23.317,9.684,36.105h-4.06c-5.523,0-10,4.477-10,10S481.96,392.003,487.483,392.003z"/>
	</g>
</g>
<g>
	<g>
		<path d="M421.567,372.001h-29.565v-60.48c0-5.523-4.478-10-10-10c-5.523,0-10,4.477-10,10v70.48c0,5.523,4.477,10,10,10h39.565
			c5.522,0,10-4.477,10-10S427.09,372.001,421.567,372.001z"/>
	</g>
</g>
<g>
	<g>
		<path d="M141.752,213.555c-5.522,0-10,4.477-10,10v0.236c0,5.523,4.478,10,10,10c5.523,0,10-4.477,10-10v-0.236
			C151.752,218.032,147.275,213.555,141.752,213.555z"/>
	</g>
</g>
<g>
	<g>
		<path d="M318.252,213.555c-5.523,0-10,4.477-10,10v0.236c0,5.523,4.477,10,10,10c5.522,0,10-4.477,10-10v-0.236
			C328.252,218.032,323.774,213.555,318.252,213.555z"/>
	</g>
</g>
<g>
</g>
<g>
</g>
<g>
</g>
<g>
</g>
<g>
</g>
<g>
</g>
<g>
</g>
<g>
</g>
<g>
</g>
<g>
</g>
<g>
</g>
<g>
</g>
<g>
</g>
<g>
</g>
<g>
</g>
</svg>
